<svg width="20" height="20" viewBox="0 0 20 20" fill="none" xmlns="http://www.w3.org/2000/svg">
<path d="M9.55161 2.57499C9.73502 2.2034 10.2649 2.2034 10.4483 2.57499L12.4587 6.64788C12.5315 6.79531 12.6721 6.89754 12.8348 6.92131L17.3314 7.57856C17.7414 7.63849 17.9047 8.14241 17.608 8.43149L14.355 11.5998C14.2371 11.7147 14.1833 11.8803 14.2111 12.0425L14.9787 16.518C15.0487 16.9265 14.62 17.2379 14.2531 17.045L10.2327 14.9307C10.087 14.8541 9.91292 14.8541 9.76723 14.9307L5.74678 17.045C5.37996 17.2379 4.95119 16.9265 5.02125 16.518L5.78884 12.0425C5.81667 11.8803 5.76284 11.7147 5.6449 11.5998L2.39197 8.43149C2.09517 8.14241 2.25856 7.63849 2.66852 7.57856L7.16514 6.92131C7.32782 6.89754 7.46841 6.79531 7.54118 6.64788L9.55161 2.57499Z" fill="#FF8E00"/>
</svg>
