<svg width="88" height="40" viewBox="0 0 88 40" fill="none" xmlns="http://www.w3.org/2000/svg">
<path d="M7.84005 0.495113C5.59999 11.5351 1.11995 26.4151 20 35.0551C3.99994 34.0951 -2.08002 17.7751 7.84005 0.495113Z" fill="#4A673E"/>
<path d="M8.64 21.6151C8.384 21.6151 7.78666 18.8418 7.52 17.4551C8.64 18.8951 15.04 18.8951 18.24 17.4551C15.84 20.9751 8.96 21.6151 8.64 21.6151Z" fill="#4A673E"/>
<path d="M7.96166 30.7004C8.0637 30.4656 5.75827 28.8124 4.5928 28.0151C5.46706 29.6163 2.91613 35.4859 0.320002 37.8468C4.50491 37.0487 7.83411 30.9939 7.96166 30.7004Z" fill="#4A673E"/>
<circle cx="10.4" cy="12.8151" r="2.4" fill="#4A673E"/>
<circle cx="1.92001" cy="10.7351" r="0.64" fill="#4A673E"/>
<circle cx="1.12" cy="13.7751" r="0.8" fill="#4A673E"/>
<circle cx="0.96" cy="17.4551" r="0.96" fill="#4A673E"/>
<circle cx="1.43999" cy="20.8151" r="0.8" fill="#4A673E"/>
<path d="M22.912 32.198C19.204 32.198 16.738 29.534 16.738 25.502C16.738 21.488 19.276 18.77 23.002 18.77C25.936 18.77 28.186 20.516 28.672 23.18H26.782C26.296 21.488 24.838 20.462 22.948 20.462C20.32 20.462 18.592 22.442 18.592 25.484C18.592 28.526 20.32 30.506 22.948 30.506C24.856 30.506 26.368 29.48 26.854 27.878H28.726C28.168 30.47 25.846 32.198 22.912 32.198ZM32.9992 32.216C31.1092 32.216 29.9932 31.154 29.9932 29.552C29.9932 27.932 31.1992 26.924 33.2692 26.762L36.0412 26.546V26.294C36.0412 24.818 35.1592 24.296 33.9712 24.296C32.5492 24.296 31.7392 24.926 31.7392 25.988H30.2632C30.2632 24.152 31.7752 22.946 34.0432 22.946C36.2212 22.946 37.6972 24.098 37.6972 26.474V32H36.2572L36.0772 30.578C35.6272 31.586 34.4212 32.216 32.9992 32.216ZM33.4852 30.902C35.0872 30.902 36.0592 29.858 36.0592 28.202V27.734L33.8092 27.914C32.3152 28.058 31.7032 28.634 31.7032 29.498C31.7032 30.434 32.3872 30.902 33.4852 30.902ZM45.0804 23.126V24.674H44.3244C42.7224 24.674 41.7324 25.646 41.7324 27.338V32H40.0404V23.216H41.6244L41.7324 24.548C42.0924 23.63 42.9744 23.018 44.1804 23.018C44.4864 23.018 44.7384 23.054 45.0804 23.126ZM50.149 32.216C47.557 32.216 45.775 30.344 45.775 27.608C45.775 24.854 47.521 22.946 50.077 22.946C52.579 22.946 54.217 24.674 54.217 27.284V27.914L47.413 27.932C47.539 29.786 48.511 30.812 50.185 30.812C51.499 30.812 52.363 30.272 52.651 29.264H54.235C53.803 31.154 52.327 32.216 50.149 32.216ZM50.077 24.368C48.601 24.368 47.665 25.25 47.449 26.798H52.525C52.525 25.34 51.571 24.368 50.077 24.368ZM56.6711 32H54.8351L59.5871 18.986H61.5491L66.3191 32H64.4651L63.2951 28.76H57.8231L56.6711 32ZM60.3431 21.794L58.3631 27.23H62.7731L60.7751 21.794C60.6851 21.542 60.5951 21.236 60.5591 21.038C60.5231 21.218 60.4331 21.524 60.3431 21.794ZM68.6611 32H66.7171L69.7951 27.644L66.7351 23.198H68.6971L70.9291 26.474L73.1071 23.198H75.0331L71.9731 27.644L74.9791 32H73.0171L70.8211 28.778L68.6611 32ZM77.2727 21.11C76.6607 21.11 76.1567 20.606 76.1567 19.994C76.1567 19.364 76.6607 18.878 77.2727 18.878C77.8847 18.878 78.3887 19.364 78.3887 19.994C78.3887 20.606 77.8847 21.11 77.2727 21.11ZM76.4447 32V23.198H78.1367V32H76.4447ZM79.8731 29.444H81.4931C81.4931 30.344 82.1771 30.884 83.2931 30.884C84.4811 30.884 85.1651 30.398 85.1651 29.588C85.1651 28.994 84.8771 28.634 83.9591 28.4L82.4111 28.04C80.8451 27.662 80.1071 26.888 80.1071 25.592C80.1071 23.972 81.4751 22.946 83.4191 22.946C85.3451 22.946 86.6051 24.026 86.6411 25.7H85.0211C84.9851 24.818 84.3911 24.26 83.3651 24.26C82.3031 24.26 81.7091 24.728 81.7091 25.538C81.7091 26.132 82.1411 26.528 83.0051 26.744L84.5531 27.122C86.0471 27.482 86.7851 28.166 86.7851 29.48C86.7851 31.154 85.3451 32.216 83.2571 32.216C81.1871 32.216 79.8731 31.118 79.8731 29.444Z" fill="#4A673E"/>
</svg>
