<svg width="88" height="39" viewBox="0 0 88 39" fill="none" xmlns="http://www.w3.org/2000/svg">
<path d="M7.84005 0C5.59999 11.04 1.11995 25.92 20 34.56C3.99994 33.6 -2.08002 17.28 7.84005 0Z" fill="#F3F0EC"/>
<path d="M8.64 21.12C8.384 21.12 7.78666 18.3466 7.52 16.96C8.64 18.4 15.04 18.4 18.24 16.96C15.84 20.48 8.96 21.12 8.64 21.12Z" fill="#F3F0EC"/>
<path d="M7.96166 30.2053C8.0637 29.9705 5.75827 28.3173 4.5928 27.52C5.46706 29.1212 2.91613 34.9908 0.320002 37.3517C4.50491 36.5536 7.83411 30.4988 7.96166 30.2053Z" fill="#F3F0EC"/>
<circle cx="10.4" cy="12.3199" r="2.4" fill="#F3F0EC"/>
<circle cx="1.92001" cy="10.2401" r="0.64" fill="#F3F0EC"/>
<circle cx="1.12" cy="13.28" r="0.8" fill="#F3F0EC"/>
<circle cx="0.96" cy="16.96" r="0.96" fill="#F3F0EC"/>
<circle cx="1.43999" cy="20.32" r="0.8" fill="#F3F0EC"/>
<path d="M22.912 31.7029C19.204 31.7029 16.738 29.0389 16.738 25.0069C16.738 20.9929 19.276 18.2749 23.002 18.2749C25.936 18.2749 28.186 20.0209 28.672 22.6849H26.782C26.296 20.9929 24.838 19.9669 22.948 19.9669C20.32 19.9669 18.592 21.9469 18.592 24.9889C18.592 28.0309 20.32 30.0109 22.948 30.0109C24.856 30.0109 26.368 28.9849 26.854 27.3829H28.726C28.168 29.9749 25.846 31.7029 22.912 31.7029ZM32.9992 31.7209C31.1092 31.7209 29.9932 30.6589 29.9932 29.0569C29.9932 27.4369 31.1992 26.4289 33.2692 26.2669L36.0412 26.0509V25.7989C36.0412 24.3229 35.1592 23.8009 33.9712 23.8009C32.5492 23.8009 31.7392 24.4309 31.7392 25.4929H30.2632C30.2632 23.6569 31.7752 22.4509 34.0432 22.4509C36.2212 22.4509 37.6972 23.6029 37.6972 25.9789V31.5049H36.2572L36.0772 30.0829C35.6272 31.0909 34.4212 31.7209 32.9992 31.7209ZM33.4852 30.4069C35.0872 30.4069 36.0592 29.3629 36.0592 27.7069V27.2389L33.8092 27.4189C32.3152 27.5629 31.7032 28.1389 31.7032 29.0029C31.7032 29.9389 32.3872 30.4069 33.4852 30.4069ZM45.0804 22.6309V24.1789H44.3244C42.7224 24.1789 41.7324 25.1509 41.7324 26.8429V31.5049H40.0404V22.7209H41.6244L41.7324 24.0529C42.0924 23.1349 42.9744 22.5229 44.1804 22.5229C44.4864 22.5229 44.7384 22.5589 45.0804 22.6309ZM50.149 31.7209C47.557 31.7209 45.775 29.8489 45.775 27.1129C45.775 24.3589 47.521 22.4509 50.077 22.4509C52.579 22.4509 54.217 24.1789 54.217 26.7889V27.4189L47.413 27.4369C47.539 29.2909 48.511 30.3169 50.185 30.3169C51.499 30.3169 52.363 29.7769 52.651 28.7689H54.235C53.803 30.6589 52.327 31.7209 50.149 31.7209ZM50.077 23.8729C48.601 23.8729 47.665 24.7549 47.449 26.3029H52.525C52.525 24.8449 51.571 23.8729 50.077 23.8729ZM56.6711 31.5049H54.8351L59.5871 18.4909H61.5491L66.3191 31.5049H64.4651L63.2951 28.2649H57.8231L56.6711 31.5049ZM60.3431 21.2989L58.3631 26.7349H62.7731L60.7751 21.2989C60.6851 21.0469 60.5951 20.7409 60.5591 20.5429C60.5231 20.7229 60.4331 21.0289 60.3431 21.2989ZM68.6611 31.5049H66.7171L69.7951 27.1489L66.7351 22.7029H68.6971L70.9291 25.9789L73.1071 22.7029H75.0331L71.9731 27.1489L74.9791 31.5049H73.0171L70.8211 28.2829L68.6611 31.5049ZM77.2727 20.6149C76.6607 20.6149 76.1567 20.1109 76.1567 19.4989C76.1567 18.8689 76.6607 18.3829 77.2727 18.3829C77.8847 18.3829 78.3887 18.8689 78.3887 19.4989C78.3887 20.1109 77.8847 20.6149 77.2727 20.6149ZM76.4447 31.5049V22.7029H78.1367V31.5049H76.4447ZM79.8731 28.9489H81.4931C81.4931 29.8489 82.1771 30.3889 83.2931 30.3889C84.4811 30.3889 85.1651 29.9029 85.1651 29.0929C85.1651 28.4989 84.8771 28.1389 83.9591 27.9049L82.4111 27.5449C80.8451 27.1669 80.1071 26.3929 80.1071 25.0969C80.1071 23.4769 81.4751 22.4509 83.4191 22.4509C85.3451 22.4509 86.6051 23.5309 86.6411 25.2049H85.0211C84.9851 24.3229 84.3911 23.7649 83.3651 23.7649C82.3031 23.7649 81.7091 24.2329 81.7091 25.0429C81.7091 25.6369 82.1411 26.0329 83.0051 26.2489L84.5531 26.6269C86.0471 26.9869 86.7851 27.6709 86.7851 28.9849C86.7851 30.6589 85.3451 31.7209 83.2571 31.7209C81.1871 31.7209 79.8731 30.6229 79.8731 28.9489Z" fill="#F3F0EC"/>
</svg>
