<svg width="110" height="28" viewBox="0 0 110 28" fill="none" xmlns="http://www.w3.org/2000/svg">
<path d="M29.7149 20.1304C28.7797 20.1304 27.9447 19.9033 27.2099 19.449C26.4751 18.9948 25.8939 18.3735 25.4664 17.5853C25.0388 16.797 24.8251 15.9019 24.8251 14.8999C24.8251 13.8978 25.0388 13.0094 25.4664 12.2345C25.8939 11.4462 26.4751 10.8316 27.2099 10.3908C27.9447 9.93651 28.7797 9.70937 29.7149 9.70937C30.4631 9.70937 31.1177 9.84968 31.6789 10.1302C32.2399 10.4108 32.6944 10.8049 33.0416 11.3126V6.1613H35.6067V19.8899H33.3222L33.0416 18.4671C32.7209 18.908 32.2934 19.2954 31.7592 19.6294C31.2381 19.9634 30.5566 20.1304 29.7149 20.1304ZM30.256 17.8859C31.0844 17.8859 31.7592 17.612 32.28 17.0642C32.8145 16.5031 33.0817 15.7883 33.0817 14.9199C33.0817 14.0515 32.8145 13.3434 32.28 12.7956C31.7592 12.2345 31.0844 11.9539 30.256 11.9539C29.4411 11.9539 28.7664 12.2278 28.2319 12.7756C27.6975 13.3233 27.4303 14.0314 27.4303 14.8999C27.4303 15.7683 27.6975 16.4831 28.2319 17.0442C28.7664 17.6053 29.4411 17.8859 30.256 17.8859Z" fill="#26391D"/>
<path d="M42.2486 20.1304C41.2465 20.1304 40.3583 19.9167 39.5833 19.4891C38.8083 19.0616 38.2004 18.4604 37.7596 17.6855C37.3187 16.9106 37.0981 16.0154 37.0981 15.0001C37.0981 13.9713 37.3122 13.0562 37.7397 12.2545C38.1805 11.4529 38.7816 10.8317 39.5432 10.3908C40.3181 9.93652 41.2266 9.70938 42.2688 9.70938C43.2441 9.70938 44.1056 9.92315 44.8538 10.3507C45.6021 10.7782 46.1832 11.3661 46.5973 12.1142C47.0251 12.8491 47.2388 13.6707 47.2388 14.5792C47.2388 14.7262 47.232 14.8798 47.2186 15.0401C47.2186 15.2005 47.2121 15.3675 47.1987 15.5412H39.6433C39.6969 16.3161 39.9641 16.924 40.4451 17.3648C40.9394 17.8057 41.534 18.0262 42.2287 18.0262C42.7498 18.0262 43.1838 17.9126 43.5313 17.6855C43.8919 17.445 44.1591 17.1377 44.333 16.7636H46.9383C46.751 17.3916 46.4371 17.9661 45.9962 18.4871C45.5688 18.9948 45.0343 19.3956 44.3931 19.6895C43.7649 19.9835 43.0503 20.1304 42.2486 20.1304ZM42.2688 11.7936C41.6407 11.7936 41.0863 11.974 40.6053 12.3347C40.1243 12.682 39.8173 13.2165 39.6835 13.9379H44.6336C44.5934 13.2833 44.3529 12.7622 43.9121 12.3748C43.4713 11.9873 42.9234 11.7936 42.2688 11.7936Z" fill="#26391D"/>
<path d="M48.5962 19.8899V9.94987H50.8608L51.0611 11.6333C51.3685 11.0454 51.8093 10.5778 52.384 10.2305C52.9717 9.88307 53.6598 9.70938 54.4482 9.70938C55.6771 9.70938 56.6325 10.0968 57.3138 10.8718C57.9952 11.6466 58.3358 12.7823 58.3358 14.2786V19.8899H55.7707V14.5191C55.7707 13.664 55.5971 13.0094 55.2496 12.5551C54.9024 12.1009 54.3611 11.8737 53.6262 11.8737C52.9048 11.8737 52.3102 12.1276 51.8426 12.6353C51.3884 13.143 51.1613 13.8511 51.1613 14.7596V19.8899H48.5962Z" fill="#26391D"/>
<path d="M60.7889 19.8899V9.94987H63.0535L63.2738 11.2926C63.5945 10.8116 64.0152 10.4308 64.5363 10.1503C65.0708 9.85635 65.6852 9.70938 66.3802 9.70938C67.9165 9.70938 69.0054 10.3039 69.6466 11.493C70.0075 10.9452 70.4885 10.511 71.0895 10.1904C71.7043 9.86973 72.3722 9.70938 73.0937 9.70938C74.3895 9.70938 75.385 10.0968 76.0797 10.8718C76.7745 11.6466 77.1217 12.7823 77.1217 14.2786V19.8899H74.5565V14.5191C74.5565 13.664 74.3895 13.0094 74.0556 12.5551C73.7349 12.1009 73.234 11.8737 72.5527 11.8737C71.8577 11.8737 71.2967 12.1276 70.8693 12.6353C70.4549 13.143 70.248 13.8511 70.248 14.7596V19.8899H67.6829V14.5191C67.6829 13.664 67.5158 13.0094 67.1816 12.5551C66.8478 12.1009 66.3333 11.8737 65.6385 11.8737C64.9572 11.8737 64.4028 12.1276 63.9753 12.6353C63.5609 13.143 63.3541 13.8511 63.3541 14.7596V19.8899H60.7889Z" fill="#26391D"/>
<path d="M82.1841 20.1304C81.3292 20.1304 80.6276 19.9968 80.0797 19.7296C79.5322 19.4491 79.1246 19.0816 78.8574 18.6274C78.5901 18.1732 78.4567 17.6721 78.4567 17.1244C78.4567 16.2025 78.8172 15.4543 79.5387 14.8798C80.2602 14.3053 81.3425 14.0181 82.7852 14.0181H85.3104V13.7776C85.3104 13.0962 85.1166 12.5952 84.7293 12.2746C84.3416 11.9539 83.8607 11.7936 83.2864 11.7936C82.7652 11.7936 82.311 11.9205 81.9237 12.1744C81.536 12.4149 81.2955 12.7756 81.2022 13.2565H78.6972C78.7637 12.5351 79.0042 11.9072 79.4186 11.3727C79.8461 10.8383 80.394 10.4308 81.0619 10.1503C81.7299 9.85635 82.4781 9.70938 83.3063 9.70938C84.7224 9.70938 85.8381 10.0635 86.6532 10.7715C87.468 11.4796 87.8756 12.4817 87.8756 13.7776V19.8899H85.6912L85.4508 18.2867C85.1568 18.8211 84.7427 19.262 84.2082 19.6094C83.6871 19.9567 83.0126 20.1304 82.1841 20.1304ZM82.7652 18.1264C83.5001 18.1264 84.0679 17.8859 84.4686 17.4049C84.883 16.924 85.1434 16.3294 85.2504 15.6213H83.0658C82.3844 15.6213 81.8969 15.7482 81.6029 16.0021C81.3089 16.2426 81.1621 16.5432 81.1621 16.9039C81.1621 17.2914 81.3089 17.592 81.6029 17.8057C81.8969 18.0195 82.2843 18.1264 82.7652 18.1264Z" fill="#26391D"/>
<path d="M90.3234 19.8899V9.94987H92.6082L92.8486 11.8136C93.2092 11.1724 93.6971 10.6646 94.3115 10.2906C94.9393 9.90311 95.6742 9.70938 96.516 9.70938V12.4149H95.7946C95.2333 12.4149 94.7324 12.5017 94.2916 12.6754C93.8507 12.8491 93.5032 13.1497 93.2494 13.5772C93.0089 14.0047 92.8888 14.5993 92.8888 15.3608V19.8899H90.3234Z" fill="#26391D"/>
<path d="M97.4692 19.8899V6.1613H100.034V13.978L103.561 9.94986H106.608L102.539 14.479L107.269 19.8899H104.063L100.034 14.8999V19.8899H97.4692Z" fill="#26391D"/>
<path d="M14.5173 3.19995H4.40479V6.39665H14.5173C15.9586 6.39665 17.127 7.56509 17.127 9.00643V17.4227C17.127 18.864 15.9586 20.0325 14.5173 20.0325H4.40479V23.2292H14.5173C17.7241 23.2292 20.3237 20.6295 20.3237 17.4227V9.00643C20.3237 5.7996 17.7241 3.19995 14.5173 3.19995Z" fill="#26391D"/>
<path d="M14.0603 9.51352L11.795 7.25803L4.47182 14.6129L2.26529 12.3968L0 14.6524L4.47182 19.1435L14.0603 9.51352Z" fill="#26391D"/>
</svg>
