<svg width="30" height="31" viewBox="0 0 30 31" fill="none" xmlns="http://www.w3.org/2000/svg">
<circle cx="15" cy="15.9766" r="15" fill="#596654"/>
<path d="M17.6666 15.9998C17.6666 16.5273 17.5102 17.0428 17.2172 17.4814C16.9242 17.9199 16.5077 18.2617 16.0204 18.4635C15.5332 18.6653 14.997 18.7182 14.4797 18.6153C13.9624 18.5124 13.4873 18.2584 13.1143 17.8855C12.7414 17.5125 12.4874 17.0374 12.3845 16.5201C12.2816 16.0028 12.3344 15.4666 12.5363 14.9793C12.7381 14.4921 13.0799 14.0756 13.5184 13.7826C13.957 13.4896 14.4725 13.3332 15 13.3332C15.7065 13.3354 16.3835 13.617 16.8831 14.1166C17.3828 14.6163 17.6644 15.2933 17.6666 15.9998ZM23.3333 12.3332V19.6665C23.3333 20.9042 22.8416 22.0912 21.9665 22.9663C21.0913 23.8415 19.9043 24.3332 18.6666 24.3332H11.3333C10.0956 24.3332 8.90863 23.8415 8.03346 22.9663C7.15829 22.0912 6.66663 20.9042 6.66663 19.6665V12.3332C6.66663 11.0955 7.15829 9.90851 8.03346 9.03334C8.90863 8.15817 10.0956 7.6665 11.3333 7.6665H18.6666C19.9043 7.6665 21.0913 8.15817 21.9665 9.03334C22.8416 9.90851 23.3333 11.0955 23.3333 12.3332ZM19 15.9998C19 15.2087 18.7654 14.4354 18.3258 13.7776C17.8863 13.1198 17.2616 12.6071 16.5307 12.3043C15.7998 12.0016 14.9955 11.9224 14.2196 12.0767C13.4437 12.231 12.7309 12.612 12.1715 13.1714C11.6121 13.7308 11.2312 14.4436 11.0768 15.2195C10.9225 15.9954 11.0017 16.7997 11.3044 17.5306C11.6072 18.2615 12.1199 18.8862 12.7777 19.3257C13.4355 19.7652 14.2088 19.9998 15 19.9998C16.0608 19.9998 17.0782 19.5784 17.8284 18.8283C18.5785 18.0781 19 17.0607 19 15.9998ZM20.3333 11.6665C20.3333 11.4687 20.2746 11.2754 20.1648 11.1109C20.0549 10.9465 19.8987 10.8183 19.716 10.7426C19.5332 10.6669 19.3322 10.6471 19.1382 10.6857C18.9442 10.7243 18.766 10.8195 18.6262 10.9594C18.4863 11.0992 18.3911 11.2774 18.3525 11.4714C18.3139 11.6654 18.3337 11.8665 18.4094 12.0492C18.4851 12.2319 18.6133 12.3881 18.7777 12.498C18.9422 12.6079 19.1355 12.6665 19.3333 12.6665C19.5985 12.6665 19.8529 12.5611 20.0404 12.3736C20.2279 12.1861 20.3333 11.9317 20.3333 11.6665Z" fill="#F3F0EC"/>
</svg>
