<svg width="54" height="54" viewBox="0 0 54 54" fill="none" xmlns="http://www.w3.org/2000/svg">
<rect x="0.5" y="0.5" width="53" height="53" rx="26.5" stroke="#D6DDD3"/>
<g clip-path="url(#clip0_25_193)">
<path d="M30.268 28.237C32.5027 29.083 35.5108 28.9288 37.426 27.87L39 27L37.426 26.13C35.5108 25.0713 32.5028 24.9171 30.268 25.763L28.592 26.3974C28.5816 26.3636 28.569 26.331 28.5566 26.2982L30.1855 25.5639C32.364 24.5817 34.3818 22.3458 34.9876 20.2429L35.4853 18.5147L33.7571 19.0124C31.6542 19.6181 29.4182 21.636 28.436 23.8144L27.7268 25.3877C27.6941 25.3718 27.6613 25.356 27.6275 25.3422L28.237 23.732C29.0828 21.4972 28.9286 18.4892 27.87 16.574L27 15L26.13 16.574C25.0713 18.4893 24.9171 21.4972 25.763 23.732L26.3725 25.3423C26.3386 25.3561 26.3058 25.3719 26.2731 25.3878L25.5639 23.8145C24.5817 21.6361 22.3458 19.6182 20.2429 19.0125L18.5147 18.5147L19.0124 20.2429C19.6181 22.3458 21.636 24.5818 23.8144 25.5639L25.4433 26.2983C25.431 26.3311 25.4183 26.3637 25.408 26.3974L23.732 25.7631C21.4972 24.9171 18.4892 25.0713 16.574 26.13L15 27L16.574 27.87C18.4893 28.9288 21.4972 29.083 23.732 28.237L25.4863 27.573C25.5002 27.6032 25.5141 27.6336 25.5296 27.6629L23.8145 28.4362C21.6361 29.4182 19.6182 31.6542 19.0125 33.7571L18.5147 35.4853L20.2429 34.9876C22.3458 34.3819 24.5818 32.364 25.5639 30.1856L26.3599 28.4201C26.3893 28.4323 26.4198 28.4424 26.4501 28.4531L25.7631 30.2681C24.9171 32.5028 25.0713 35.5109 26.13 37.4261L27 39.0001L27.8701 37.4261C28.9288 35.5109 29.083 32.503 28.2371 30.2681L27.55 28.453C27.5802 28.4424 27.6108 28.4323 27.6402 28.42L28.4362 30.1855C29.4182 32.364 31.6542 34.3818 33.7571 34.9876L35.4853 35.4853L34.9876 33.7571C34.3819 31.6542 32.364 29.4182 30.1856 28.436L28.4704 27.6629C28.486 27.6336 28.4999 27.6032 28.5137 27.5729L30.268 28.237Z" fill="#416B2F"/>
</g>
<defs>
<clipPath id="clip0_25_193">
<rect width="24" height="24" fill="white" transform="translate(15 15)"/>
</clipPath>
</defs>
</svg>
