<svg width="80" height="81" viewBox="0 0 80 81" fill="none" xmlns="http://www.w3.org/2000/svg">
<circle cx="40" cy="40.9766" r="40" fill="#596654"/>
<path d="M38.2366 38.516C38.2366 46.5204 32.6057 52.9897 24.877 53.9766V49.3713C29.183 48.6038 32.2744 45.7529 32.2744 42.2441C31.5016 42.6827 30.5079 42.902 29.183 42.902C25.8707 42.902 23 40.4897 23 36.2134C23 32.0467 25.8707 28.9766 30.2871 28.9766C34.7035 28.9766 38.2366 32.595 38.2366 38.516ZM58 38.516C58 46.5204 52.3691 52.9897 44.53 53.9766V49.3713C48.836 48.6038 51.9274 45.7529 51.9274 42.2441C51.1546 42.6827 50.2713 42.902 48.9464 42.902C45.5237 42.902 42.653 40.4897 42.653 36.2134C42.653 32.0467 45.6341 28.9766 49.9401 28.9766C54.4669 28.9766 58 32.595 58 38.516Z" fill="#BCC8B7"/>
</svg>
