<svg width="37" height="36" viewBox="0 0 37 36" fill="none" xmlns="http://www.w3.org/2000/svg">
<path d="M22.7307 6.86344C22.3189 6.13775 21.7265 5.53512 21.0131 5.11613C20.2997 4.69714 19.4905 4.47656 18.6667 4.47656C17.8429 4.47656 17.0337 4.69714 16.3203 5.11613C15.6069 5.53512 15.0145 6.13775 14.6027 6.86344L4.12889 25.3163C3.71695 26.0419 3.50005 26.865 3.5 27.703C3.49995 28.5409 3.71676 29.3641 4.12862 30.0898C4.54049 30.8155 5.1329 31.4181 5.84631 31.8371C6.55972 32.256 7.36899 32.4766 8.19276 32.4766H29.1403C29.9641 32.4766 30.7734 32.2561 31.4868 31.8371C32.2003 31.4182 32.7927 30.8155 33.2046 30.0899C33.6165 29.3642 33.8333 28.541 33.8333 27.7031C33.8333 26.8651 33.6164 26.0419 33.2045 25.3163L22.7307 6.86344ZM32.1532 29.4726C31.8507 30.0131 31.4121 30.4618 30.8826 30.7728C30.3531 31.0838 29.7517 31.2457 29.1403 31.242H8.19276C7.58206 31.2419 6.98214 31.0784 6.45328 30.7677C5.92442 30.4571 5.48526 30.0103 5.17993 29.4724C4.8746 28.9344 4.71385 28.3241 4.71385 27.7029C4.71385 27.0818 4.8746 26.4715 5.17993 25.9335L15.6537 7.48071C15.9591 6.94274 16.3983 6.496 16.9272 6.1854C17.4561 5.8748 18.056 5.71128 18.6667 5.71128C19.2774 5.71128 19.8774 5.8748 20.4063 6.1854C20.9352 6.496 21.3743 6.94274 21.6797 7.48071L32.1535 25.9335C32.4624 26.4703 32.6252 27.0811 32.6251 27.7031C32.6251 28.3251 32.4622 28.9358 32.1532 29.4726ZM18.6665 24.4133C18.2202 24.4133 17.7839 24.5479 17.4127 24.8002C17.0416 25.0524 16.7523 25.4109 16.5815 25.8304C16.4107 26.2499 16.366 26.7114 16.4531 27.1567C16.5402 27.6021 16.7551 28.0111 17.0707 28.3321C17.3864 28.6532 17.7885 28.8718 18.2263 28.9604C18.664 29.049 19.1178 29.0035 19.5302 28.8298C19.9426 28.656 20.295 28.3618 20.543 27.9843C20.791 27.6068 20.9234 27.1629 20.9234 26.7089C20.9227 26.1003 20.6847 25.5168 20.2616 25.0864C19.8385 24.6561 19.2649 24.414 18.6665 24.4133ZM18.6665 27.77C18.4602 27.77 18.2586 27.7077 18.087 27.5911C17.9155 27.4745 17.7818 27.3088 17.7028 27.1149C17.6239 26.9211 17.6032 26.7077 17.6435 26.5019C17.6837 26.2961 17.7831 26.107 17.9289 25.9586C18.0748 25.8102 18.2607 25.7092 18.463 25.6682C18.6654 25.6273 18.8751 25.6483 19.0657 25.7286C19.2563 25.8089 19.4193 25.9449 19.5339 26.1194C19.6485 26.2939 19.7097 26.499 19.7097 26.7089C19.7094 26.9902 19.5994 27.2599 19.4038 27.4588C19.2082 27.6577 18.9431 27.7696 18.6665 27.77ZM18.6665 10.0185C18.0682 10.0192 17.4946 10.2613 17.0715 10.6916C16.6484 11.122 16.4104 11.7055 16.4097 12.3141V20.1814C16.4097 20.7903 16.6475 21.3742 17.0707 21.8047C17.494 22.2352 18.068 22.477 18.6665 22.477C19.2651 22.477 19.8391 22.2352 20.2624 21.8047C20.6856 21.3742 20.9234 20.7903 20.9234 20.1814V12.3141C20.9227 11.7055 20.6847 11.122 20.2616 10.6916C19.8385 10.2613 19.2649 10.0192 18.6665 10.0185ZM19.7097 20.1814C19.7097 20.4629 19.5998 20.7327 19.4042 20.9317C19.2085 21.1307 18.9432 21.2425 18.6665 21.2425C18.3899 21.2425 18.1246 21.1307 17.9289 20.9317C17.7333 20.7327 17.6234 20.4629 17.6234 20.1814V12.3141C17.6234 12.0327 17.7333 11.7628 17.9289 11.5638C18.1246 11.3648 18.3899 11.253 18.6665 11.253C18.9432 11.253 19.2085 11.3648 19.4042 11.5638C19.5998 11.7628 19.7097 12.0327 19.7097 12.3141V20.1814Z" fill="#26391D"/>
</svg>
