<svg width="36" height="36" viewBox="0 0 36 36" fill="none" xmlns="http://www.w3.org/2000/svg">
<path d="M34.0857 27.7301H32.1964L34.5571 17.8587C34.6543 17.4471 34.6693 17.0204 34.6013 16.6031C34.5332 16.1857 34.3835 15.7859 34.1607 15.4265L27.3036 4.42294C27.0146 3.9642 26.5579 3.63652 26.0308 3.50976C25.5037 3.38301 24.9479 3.46722 24.482 3.74444C24.0161 4.02165 23.6769 4.46993 23.5368 4.99367C23.3967 5.51741 23.4668 6.07515 23.7321 6.54794L24.0393 7.08722C23.6608 6.98851 23.2751 6.92044 22.8857 6.88365C21.9517 6.79954 21.0102 6.90074 20.1154 7.18144C19.2206 7.46214 18.39 7.91682 17.6714 8.51936C16.9528 7.91682 16.1222 7.46214 15.2274 7.18144C14.3326 6.90074 13.3912 6.79954 12.4571 6.88365C12.2174 6.90552 11.979 6.9401 11.7429 6.98722L11.9929 6.54794C12.2582 6.07515 12.3283 5.51741 12.1882 4.99367C12.0481 4.46993 11.7089 4.02165 11.243 3.74444C10.7771 3.46722 10.2213 3.38301 9.69422 3.50976C9.1671 3.63652 8.71037 3.9642 8.42143 4.42294L1.55357 15.4265C1.33076 15.7859 1.18105 16.1857 1.11302 16.6031C1.045 17.0204 1.05999 17.4471 1.15714 17.8587L3.51786 27.7301H1.62857C1.55541 27.7301 1.48296 27.7445 1.41536 27.7725C1.34777 27.8005 1.28635 27.8415 1.23461 27.8933C1.18288 27.945 1.14184 28.0064 1.11384 28.074C1.08584 28.1416 1.07143 28.2141 1.07143 28.2872V33.6658C1.07143 33.8136 1.13013 33.9553 1.23461 34.0598C1.3391 34.1642 1.48081 34.2229 1.62857 34.2229H13.6893C13.837 34.2229 13.9788 34.1642 14.0832 34.0598C14.1877 33.9553 14.2464 33.8136 14.2464 33.6658V28.2872C14.2464 28.2141 14.232 28.1416 14.204 28.074C14.176 28.0064 14.135 27.945 14.0832 27.8933C14.0315 27.8415 13.9701 27.8005 13.9025 27.7725C13.8349 27.7445 13.7624 27.7301 13.6893 27.7301H12.0857V24.1587C12.085 23.6863 12.0189 23.2164 11.8893 22.7622L17.2821 28.1551C17.3336 28.2069 17.3948 28.248 17.4622 28.2761C17.5296 28.3042 17.602 28.3186 17.675 28.3186C17.748 28.3186 17.8203 28.3042 17.8878 28.2761C17.9552 28.248 18.0164 28.2069 18.0679 28.1551L24.0179 22.2158C23.7643 22.8273 23.6321 23.4824 23.6286 24.1444V27.7158H22.025C21.8772 27.7158 21.7355 27.7745 21.631 27.879C21.5266 27.9835 21.4679 28.1252 21.4679 28.2729V33.6658C21.4679 33.8136 21.5266 33.9553 21.631 34.0598C21.7355 34.1642 21.8772 34.2229 22.025 34.2229H34.0857C34.2335 34.2229 34.3752 34.1642 34.4797 34.0598C34.5842 33.9553 34.6429 33.8136 34.6429 33.6658V28.2872C34.6429 28.2141 34.6284 28.1416 34.6004 28.074C34.5724 28.0064 34.5314 27.945 34.4797 27.8933C34.4279 27.8415 34.3665 27.8005 34.2989 27.7725C34.2313 27.7445 34.1589 27.7301 34.0857 27.7301ZM24.9429 4.76222C25.0498 4.67612 25.1739 4.61385 25.3069 4.57957C25.4398 4.5453 25.5786 4.53981 25.7138 4.56348C25.849 4.58715 25.9777 4.63942 26.0911 4.71681C26.2045 4.7942 26.3001 4.89492 26.3714 5.01222L33.2143 16.0158C33.3601 16.2499 33.4582 16.5105 33.5029 16.7826C33.5476 17.0548 33.5382 17.3331 33.475 17.6015L31.0714 27.7301H24.7429V24.1587C24.7427 23.5221 24.8958 22.8949 25.1893 22.3301C25.5967 21.5417 25.8097 20.6675 25.8107 19.7801V13.8586C25.8107 13.5745 25.9236 13.302 26.1245 13.101C26.3255 12.9001 26.598 12.7872 26.8821 12.7872C27.1663 12.7872 27.4388 12.9001 27.6398 13.101C27.8407 13.302 27.9536 13.5745 27.9536 13.8586V21.1872H29.0679V15.9551C29.5201 14.4115 29.4345 12.7602 28.8252 11.2716C28.2159 9.78307 27.119 8.54567 25.7143 7.76222L24.7143 5.97651C24.6042 5.77937 24.5668 5.54985 24.6085 5.32794C24.6503 5.10604 24.7686 4.90584 24.9429 4.76222ZM2.23928 17.6015C2.17612 17.3331 2.16664 17.0548 2.21138 16.7826C2.25612 16.5105 2.35421 16.2499 2.5 16.0158L9.35714 5.01222C9.48785 4.792 9.7007 4.63272 9.94885 4.56942C10.197 4.50613 10.4601 4.54401 10.6804 4.67472C10.9006 4.80543 11.0599 5.01828 11.1232 5.26643C11.1864 5.51458 11.1486 5.77771 11.0179 5.99794L10.175 7.49079C9.31671 7.87746 8.54374 8.43069 7.90092 9.11841C7.25811 9.80613 6.75825 10.6146 6.43034 11.4971C6.10243 12.3795 5.95299 13.3182 5.99069 14.2588C6.0284 15.1994 6.2525 16.1232 6.65 16.9765V21.1872H7.76428V13.8586C7.76428 13.7179 7.792 13.5786 7.84584 13.4486C7.89969 13.3186 7.97861 13.2005 8.0781 13.101C8.17759 13.0015 8.2957 12.9226 8.42569 12.8688C8.55569 12.8149 8.69501 12.7872 8.83571 12.7872C8.97641 12.7872 9.11574 12.8149 9.24573 12.8688C9.37572 12.9226 9.49384 13.0015 9.59333 13.101C9.69282 13.2005 9.77174 13.3186 9.82558 13.4486C9.87943 13.5786 9.90714 13.7179 9.90714 13.8586V19.7658C9.90812 20.6532 10.1212 21.5275 10.5286 22.3158C10.822 22.8806 10.9751 23.5078 10.975 24.1444V27.7158H4.66071L2.23928 17.6015ZM13.1357 28.8337V33.1194H2.18571V28.8337H13.1357ZM17.675 26.9729L11.0714 20.3729C11.0418 20.1719 11.0262 19.969 11.025 19.7658V13.8586C11.0259 13.4326 10.9021 13.0156 10.6689 12.6591C10.4356 12.3025 10.1031 12.0221 9.7123 11.8523C9.32152 11.6826 8.8896 11.6309 8.46981 11.7038C8.05003 11.7766 7.66075 11.9707 7.35 12.2622C7.69131 11.1105 8.36909 10.0872 9.2963 9.32349C10.2235 8.55984 11.3578 8.09076 12.5536 7.97651C12.7321 7.97651 12.9107 7.95151 13.0857 7.95151C14.6513 7.95084 16.1555 8.56071 17.2786 9.65151C17.382 9.75294 17.5212 9.80975 17.6661 9.80975C17.811 9.80975 17.9501 9.75294 18.0536 9.65151C18.7726 8.95654 19.6539 8.45242 20.6175 8.18501C21.581 7.91761 22.5961 7.89541 23.5705 8.12044C24.5448 8.34548 25.4473 8.81059 26.196 9.47347C26.9447 10.1363 27.5157 10.9759 27.8571 11.9158C27.5245 11.7458 27.1538 11.6641 26.7805 11.6784C26.4073 11.6928 26.0439 11.8027 25.7253 11.9977C25.4067 12.1926 25.1434 12.4661 24.9608 12.792C24.7781 13.1178 24.6822 13.4851 24.6821 13.8586V19.7658C24.6821 19.8337 24.6821 19.9051 24.6821 19.9729L17.675 26.9729ZM33.5286 33.1194H22.5786V28.8337H33.5286V33.1194Z" fill="#26391D"/>
</svg>
