<svg width="37" height="36" viewBox="0 0 37 36" fill="none" xmlns="http://www.w3.org/2000/svg">
<mask id="path-1-outside-1_90_114" maskUnits="userSpaceOnUse" x="1.33334" y="1.14331" width="33" height="33" fill="black">
<rect fill="white" x="1.33334" y="1.14331" width="33" height="33"/>
<path fill-rule="evenodd" clip-rule="evenodd" d="M18.0852 9.47526C20.41 9.47526 22.5145 10.4164 24.0376 11.9412C25.5605 13.4641 26.5035 15.5686 26.5035 17.8935C26.5035 20.2183 25.5623 22.3228 24.0376 23.8459C22.5147 25.3688 20.4102 26.3118 18.0852 26.3118C15.7602 26.3118 13.656 25.3706 12.1329 23.8459C10.61 22.323 9.66695 20.2185 9.66695 17.8935C9.66695 15.5688 10.6081 13.4643 12.1329 11.9412C13.6558 10.4183 15.7602 9.47526 18.0852 9.47526ZM14.9548 5.23234L14.6461 5.31705C14.1171 5.46199 13.5995 5.63894 13.0969 5.84602H13.095C12.5887 6.05496 12.0974 6.29591 11.6249 6.56698L11.3463 6.7251L8.78435 5.40741C8.58858 5.30576 8.35516 5.34906 8.20646 5.49777L8.20458 5.49588L5.68779 8.01267C5.52214 8.17832 5.49767 8.43056 5.61438 8.62067L6.91699 11.1525L6.75887 11.4311C6.48969 11.8998 6.24874 12.393 6.03791 12.9031C5.83084 13.4039 5.65202 13.9215 5.50893 14.4523L5.42423 14.761L2.6797 15.6401C2.46887 15.7079 2.33522 15.9017 2.33522 16.1107H2.33334V19.6703C2.33334 19.9056 2.49711 20.1032 2.71735 20.1541L5.42236 21.0218L5.50707 21.3306C5.65201 21.8595 5.82896 22.3772 6.03605 22.8797C6.24687 23.3899 6.48782 23.8812 6.75701 24.3518L6.91512 24.6304L5.59744 27.1923C5.49579 27.3881 5.53908 27.6215 5.68779 27.7702L5.68591 27.7721L8.20269 30.2889C8.36834 30.4545 8.62058 30.479 8.8107 30.3623L11.3425 29.0597L11.6211 29.2178C12.0898 29.487 12.583 29.7279 13.0931 29.9387C13.5939 30.1458 14.1115 30.3246 14.6423 30.4677L14.951 30.5524L15.8301 33.297C15.8979 33.5078 16.0918 33.6414 16.3007 33.6414V33.6433H19.8603C20.0956 33.6433 20.2933 33.4795 20.3441 33.2593L21.2119 30.5543L21.5206 30.4696C22.0496 30.3246 22.5672 30.1477 23.0698 29.9406C23.5799 29.7298 24.0731 29.4888 24.5418 29.2197L24.8204 29.0615L27.3823 30.3792C27.5781 30.4809 27.8115 30.4376 27.9602 30.2889L27.9621 30.2907L30.4789 27.774C30.6445 27.6083 30.669 27.3561 30.5523 27.166L29.2497 24.6341L29.4078 24.3555C29.677 23.8868 29.9179 23.3936 30.1288 22.8835C30.3358 22.3828 30.5147 21.8651 30.6578 21.3343L30.7425 21.0256L33.487 20.1465C33.6978 20.0788 33.8315 19.8849 33.8315 19.6759H33.8333V16.1163C33.8333 15.881 33.6696 15.6834 33.4493 15.6326L30.7443 14.7648L30.6596 14.4561C30.5147 13.9271 30.3377 13.4094 30.1306 12.9069V12.905C29.9217 12.3986 29.6807 11.9073 29.4097 11.4348L29.2516 11.1562L30.5693 8.59431C30.6709 8.39854 30.6276 8.16513 30.4789 8.01643L30.4808 8.01454L27.964 5.49776C27.7983 5.33211 27.5461 5.30764 27.356 5.42435L24.8242 6.72696L24.5456 6.56884C24.0769 6.29965 23.5837 6.0587 23.0735 5.84787C22.5728 5.64081 22.0552 5.46199 21.5244 5.3189L21.2156 5.23419L20.3366 2.48967C20.2688 2.27884 20.0749 2.14519 19.866 2.14519V2.14331H16.3064C16.0711 2.14331 15.8734 2.30708 15.8226 2.52732L14.9548 5.23234ZM16.6678 3.13533L15.817 5.7895C15.7624 5.96269 15.6193 6.08316 15.4537 6.12081L14.9078 6.26951C14.4221 6.40128 13.9459 6.56505 13.4771 6.75892C13.0122 6.95093 12.5604 7.17493 12.1199 7.42528L11.6098 7.71706C11.4498 7.80929 11.2597 7.80176 11.1109 7.71329L8.65627 6.4502L6.64962 8.45685L7.92399 10.936C8.00305 11.0903 7.99364 11.2673 7.91458 11.4084L7.62281 11.9204C7.36868 12.3647 7.14656 12.8165 6.95645 13.2758C6.76256 13.7445 6.59879 14.2226 6.46516 14.7083L6.3108 15.2768C6.26562 15.4443 6.1395 15.5686 5.98515 15.6175L3.33098 16.4683V19.307L5.98515 20.1578C6.15833 20.2124 6.2788 20.3554 6.31645 20.5211L6.46516 21.067C6.59692 21.5526 6.76069 22.0308 6.95645 22.4995C7.14657 22.9588 7.36869 23.4106 7.62281 23.8548L7.91458 24.3668C8.00682 24.5268 7.99929 24.717 7.91081 24.8657L6.64772 27.3204L8.65437 29.327L11.1335 28.0526C11.2878 27.9736 11.4648 27.983 11.606 28.0621L12.1161 28.3538C12.5603 28.6079 13.0121 28.8301 13.4714 29.0202C13.9401 29.2141 14.4182 29.3778 14.9039 29.5115L15.4724 29.6658C15.64 29.711 15.7642 29.8371 15.8131 29.9915L16.664 32.6457H19.5026L20.3534 29.9915C20.408 29.8183 20.5511 29.6978 20.7167 29.6602L21.2626 29.5115C21.7483 29.3797 22.2264 29.2159 22.6952 29.0202C23.1545 28.8301 23.6081 28.6079 24.0505 28.3538L24.5606 28.0621C24.7206 27.9698 24.9107 27.9774 25.0595 28.0658L27.5141 29.3289L29.5208 27.3223L28.2464 24.8432C28.1674 24.6888 28.1768 24.5119 28.2558 24.3707L28.5476 23.8587C28.8017 23.4144 29.0238 22.9626 29.214 22.5033C29.4078 22.0346 29.5716 21.5565 29.7052 21.0708L29.8596 20.5023C29.9048 20.3348 30.0309 20.2106 30.1853 20.1616L32.8394 19.3108V16.4722L30.1853 15.6213C30.0121 15.5667 29.8916 15.4237 29.854 15.258L29.7052 14.7121C29.5735 14.2265 29.4097 13.7502 29.2158 13.2815C29.0238 12.8184 28.8017 12.3648 28.5495 11.9243L28.2577 11.4123C28.1655 11.2523 28.173 11.0622 28.2615 10.9134L29.5246 8.45875L27.5179 6.4521L25.0388 7.72647C24.8845 7.80553 24.7075 7.79612 24.5663 7.71706L24.0562 7.42528C23.612 7.17116 23.1602 6.94904 22.7009 6.75892C22.2322 6.56504 21.7541 6.40127 21.2684 6.26763L20.6999 6.11328C20.5323 6.0681 20.4081 5.94198 20.3591 5.78762L19.5083 3.13345H16.6697L16.6678 3.13533ZM19.4914 14.4598C19.1319 14.1003 18.6368 13.8782 18.0871 13.8782C17.5393 13.8782 17.0424 14.1003 16.6828 14.4598C16.3233 14.8193 16.1012 15.3144 16.1012 15.8641C16.1012 16.4119 16.3233 16.9088 16.6828 17.2684C17.0424 17.6279 17.5374 17.85 18.0871 17.85C18.6349 17.85 19.1319 17.6279 19.4914 17.2684C19.8509 16.9089 20.073 16.4138 20.073 15.8641C20.073 15.3163 19.8509 14.8194 19.4914 14.4598ZM18.0871 12.8861C17.2645 12.8861 16.521 13.2193 15.9807 13.7577C15.4423 14.2961 15.1092 15.0415 15.1092 15.8641C15.1092 16.6867 15.4424 17.4303 15.9807 17.9705C16.5191 18.5089 17.2645 18.8421 18.0871 18.8421C18.9097 18.8421 19.6533 18.5089 20.1935 17.9705C20.7319 17.4321 21.0651 16.6867 21.0651 15.8641C21.0651 15.0415 20.7319 14.2979 20.1935 13.7577C19.6551 13.2193 18.9097 12.8861 18.0871 12.8861ZM23.9619 22.432C23.8 22.0574 23.5478 21.6997 23.239 21.4305C22.9341 21.1651 22.5783 20.9938 22.2056 20.9938H13.9701C13.6068 20.9938 13.2604 21.167 12.9611 21.4305C12.6524 21.7035 12.3982 22.0705 12.2307 22.4546C12.419 22.6974 12.6223 22.927 12.8387 23.1435C14.1828 24.4876 16.0388 25.3177 18.089 25.3177C20.1389 25.3177 21.9949 24.4875 23.3392 23.1435C23.5632 22.9195 23.7702 22.6842 23.9641 22.4338L23.9619 22.432ZM11.6076 21.519C11.8015 21.2103 12.0368 20.926 12.3041 20.6889C12.7747 20.271 13.3469 19.9999 13.9681 19.9999H22.2036C22.8361 19.9999 23.414 20.2691 23.8884 20.6813C24.1538 20.9129 24.3872 21.1915 24.5792 21.4927C25.1722 20.4254 25.5091 19.198 25.5091 17.8916C25.5091 15.8417 24.679 13.9856 23.335 12.6414C21.9909 11.2973 20.1349 10.4672 18.0848 10.4672C16.0346 10.4672 14.1788 11.2974 12.8345 12.6414C11.4905 13.9854 10.6604 15.8415 10.6604 17.8916C10.6604 19.2093 11.003 20.446 11.6053 21.5171L11.6076 21.519Z"/>
</mask>
<path fill-rule="evenodd" clip-rule="evenodd" d="M18.0852 9.47526C20.41 9.47526 22.5145 10.4164 24.0376 11.9412C25.5605 13.4641 26.5035 15.5686 26.5035 17.8935C26.5035 20.2183 25.5623 22.3228 24.0376 23.8459C22.5147 25.3688 20.4102 26.3118 18.0852 26.3118C15.7602 26.3118 13.656 25.3706 12.1329 23.8459C10.61 22.323 9.66695 20.2185 9.66695 17.8935C9.66695 15.5688 10.6081 13.4643 12.1329 11.9412C13.6558 10.4183 15.7602 9.47526 18.0852 9.47526ZM14.9548 5.23234L14.6461 5.31705C14.1171 5.46199 13.5995 5.63894 13.0969 5.84602H13.095C12.5887 6.05496 12.0974 6.29591 11.6249 6.56698L11.3463 6.7251L8.78435 5.40741C8.58858 5.30576 8.35516 5.34906 8.20646 5.49777L8.20458 5.49588L5.68779 8.01267C5.52214 8.17832 5.49767 8.43056 5.61438 8.62067L6.91699 11.1525L6.75887 11.4311C6.48969 11.8998 6.24874 12.393 6.03791 12.9031C5.83084 13.4039 5.65202 13.9215 5.50893 14.4523L5.42423 14.761L2.6797 15.6401C2.46887 15.7079 2.33522 15.9017 2.33522 16.1107H2.33334V19.6703C2.33334 19.9056 2.49711 20.1032 2.71735 20.1541L5.42236 21.0218L5.50707 21.3306C5.65201 21.8595 5.82896 22.3772 6.03605 22.8797C6.24687 23.3899 6.48782 23.8812 6.75701 24.3518L6.91512 24.6304L5.59744 27.1923C5.49579 27.3881 5.53908 27.6215 5.68779 27.7702L5.68591 27.7721L8.20269 30.2889C8.36834 30.4545 8.62058 30.479 8.8107 30.3623L11.3425 29.0597L11.6211 29.2178C12.0898 29.487 12.583 29.7279 13.0931 29.9387C13.5939 30.1458 14.1115 30.3246 14.6423 30.4677L14.951 30.5524L15.8301 33.297C15.8979 33.5078 16.0918 33.6414 16.3007 33.6414V33.6433H19.8603C20.0956 33.6433 20.2933 33.4795 20.3441 33.2593L21.2119 30.5543L21.5206 30.4696C22.0496 30.3246 22.5672 30.1477 23.0698 29.9406C23.5799 29.7298 24.0731 29.4888 24.5418 29.2197L24.8204 29.0615L27.3823 30.3792C27.5781 30.4809 27.8115 30.4376 27.9602 30.2889L27.9621 30.2907L30.4789 27.774C30.6445 27.6083 30.669 27.3561 30.5523 27.166L29.2497 24.6341L29.4078 24.3555C29.677 23.8868 29.9179 23.3936 30.1288 22.8835C30.3358 22.3828 30.5147 21.8651 30.6578 21.3343L30.7425 21.0256L33.487 20.1465C33.6978 20.0788 33.8315 19.8849 33.8315 19.6759H33.8333V16.1163C33.8333 15.881 33.6696 15.6834 33.4493 15.6326L30.7443 14.7648L30.6596 14.4561C30.5147 13.9271 30.3377 13.4094 30.1306 12.9069V12.905C29.9217 12.3986 29.6807 11.9073 29.4097 11.4348L29.2516 11.1562L30.5693 8.59431C30.6709 8.39854 30.6276 8.16513 30.4789 8.01643L30.4808 8.01454L27.964 5.49776C27.7983 5.33211 27.5461 5.30764 27.356 5.42435L24.8242 6.72696L24.5456 6.56884C24.0769 6.29965 23.5837 6.0587 23.0735 5.84787C22.5728 5.64081 22.0552 5.46199 21.5244 5.3189L21.2156 5.23419L20.3366 2.48967C20.2688 2.27884 20.0749 2.14519 19.866 2.14519V2.14331H16.3064C16.0711 2.14331 15.8734 2.30708 15.8226 2.52732L14.9548 5.23234ZM16.6678 3.13533L15.817 5.7895C15.7624 5.96269 15.6193 6.08316 15.4537 6.12081L14.9078 6.26951C14.4221 6.40128 13.9459 6.56505 13.4771 6.75892C13.0122 6.95093 12.5604 7.17493 12.1199 7.42528L11.6098 7.71706C11.4498 7.80929 11.2597 7.80176 11.1109 7.71329L8.65627 6.4502L6.64962 8.45685L7.92399 10.936C8.00305 11.0903 7.99364 11.2673 7.91458 11.4084L7.62281 11.9204C7.36868 12.3647 7.14656 12.8165 6.95645 13.2758C6.76256 13.7445 6.59879 14.2226 6.46516 14.7083L6.3108 15.2768C6.26562 15.4443 6.1395 15.5686 5.98515 15.6175L3.33098 16.4683V19.307L5.98515 20.1578C6.15833 20.2124 6.2788 20.3554 6.31645 20.5211L6.46516 21.067C6.59692 21.5526 6.76069 22.0308 6.95645 22.4995C7.14657 22.9588 7.36869 23.4106 7.62281 23.8548L7.91458 24.3668C8.00682 24.5268 7.99929 24.717 7.91081 24.8657L6.64772 27.3204L8.65437 29.327L11.1335 28.0526C11.2878 27.9736 11.4648 27.983 11.606 28.0621L12.1161 28.3538C12.5603 28.6079 13.0121 28.8301 13.4714 29.0202C13.9401 29.2141 14.4182 29.3778 14.9039 29.5115L15.4724 29.6658C15.64 29.711 15.7642 29.8371 15.8131 29.9915L16.664 32.6457H19.5026L20.3534 29.9915C20.408 29.8183 20.5511 29.6978 20.7167 29.6602L21.2626 29.5115C21.7483 29.3797 22.2264 29.2159 22.6952 29.0202C23.1545 28.8301 23.6081 28.6079 24.0505 28.3538L24.5606 28.0621C24.7206 27.9698 24.9107 27.9774 25.0595 28.0658L27.5141 29.3289L29.5208 27.3223L28.2464 24.8432C28.1674 24.6888 28.1768 24.5119 28.2558 24.3707L28.5476 23.8587C28.8017 23.4144 29.0238 22.9626 29.214 22.5033C29.4078 22.0346 29.5716 21.5565 29.7052 21.0708L29.8596 20.5023C29.9048 20.3348 30.0309 20.2106 30.1853 20.1616L32.8394 19.3108V16.4722L30.1853 15.6213C30.0121 15.5667 29.8916 15.4237 29.854 15.258L29.7052 14.7121C29.5735 14.2265 29.4097 13.7502 29.2158 13.2815C29.0238 12.8184 28.8017 12.3648 28.5495 11.9243L28.2577 11.4123C28.1655 11.2523 28.173 11.0622 28.2615 10.9134L29.5246 8.45875L27.5179 6.4521L25.0388 7.72647C24.8845 7.80553 24.7075 7.79612 24.5663 7.71706L24.0562 7.42528C23.612 7.17116 23.1602 6.94904 22.7009 6.75892C22.2322 6.56504 21.7541 6.40127 21.2684 6.26763L20.6999 6.11328C20.5323 6.0681 20.4081 5.94198 20.3591 5.78762L19.5083 3.13345H16.6697L16.6678 3.13533ZM19.4914 14.4598C19.1319 14.1003 18.6368 13.8782 18.0871 13.8782C17.5393 13.8782 17.0424 14.1003 16.6828 14.4598C16.3233 14.8193 16.1012 15.3144 16.1012 15.8641C16.1012 16.4119 16.3233 16.9088 16.6828 17.2684C17.0424 17.6279 17.5374 17.85 18.0871 17.85C18.6349 17.85 19.1319 17.6279 19.4914 17.2684C19.8509 16.9089 20.073 16.4138 20.073 15.8641C20.073 15.3163 19.8509 14.8194 19.4914 14.4598ZM18.0871 12.8861C17.2645 12.8861 16.521 13.2193 15.9807 13.7577C15.4423 14.2961 15.1092 15.0415 15.1092 15.8641C15.1092 16.6867 15.4424 17.4303 15.9807 17.9705C16.5191 18.5089 17.2645 18.8421 18.0871 18.8421C18.9097 18.8421 19.6533 18.5089 20.1935 17.9705C20.7319 17.4321 21.0651 16.6867 21.0651 15.8641C21.0651 15.0415 20.7319 14.2979 20.1935 13.7577C19.6551 13.2193 18.9097 12.8861 18.0871 12.8861ZM23.9619 22.432C23.8 22.0574 23.5478 21.6997 23.239 21.4305C22.9341 21.1651 22.5783 20.9938 22.2056 20.9938H13.9701C13.6068 20.9938 13.2604 21.167 12.9611 21.4305C12.6524 21.7035 12.3982 22.0705 12.2307 22.4546C12.419 22.6974 12.6223 22.927 12.8387 23.1435C14.1828 24.4876 16.0388 25.3177 18.089 25.3177C20.1389 25.3177 21.9949 24.4875 23.3392 23.1435C23.5632 22.9195 23.7702 22.6842 23.9641 22.4338L23.9619 22.432ZM11.6076 21.519C11.8015 21.2103 12.0368 20.926 12.3041 20.6889C12.7747 20.271 13.3469 19.9999 13.9681 19.9999H22.2036C22.8361 19.9999 23.414 20.2691 23.8884 20.6813C24.1538 20.9129 24.3872 21.1915 24.5792 21.4927C25.1722 20.4254 25.5091 19.198 25.5091 17.8916C25.5091 15.8417 24.679 13.9856 23.335 12.6414C21.9909 11.2973 20.1349 10.4672 18.0848 10.4672C16.0346 10.4672 14.1788 11.2974 12.8345 12.6414C11.4905 13.9854 10.6604 15.8415 10.6604 17.8916C10.6604 19.2093 11.003 20.446 11.6053 21.5171L11.6076 21.519Z" fill="#26391D"/>
<path fill-rule="evenodd" clip-rule="evenodd" d="M18.0852 9.47526C20.41 9.47526 22.5145 10.4164 24.0376 11.9412C25.5605 13.4641 26.5035 15.5686 26.5035 17.8935C26.5035 20.2183 25.5623 22.3228 24.0376 23.8459C22.5147 25.3688 20.4102 26.3118 18.0852 26.3118C15.7602 26.3118 13.656 25.3706 12.1329 23.8459C10.61 22.323 9.66695 20.2185 9.66695 17.8935C9.66695 15.5688 10.6081 13.4643 12.1329 11.9412C13.6558 10.4183 15.7602 9.47526 18.0852 9.47526ZM14.9548 5.23234L14.6461 5.31705C14.1171 5.46199 13.5995 5.63894 13.0969 5.84602H13.095C12.5887 6.05496 12.0974 6.29591 11.6249 6.56698L11.3463 6.7251L8.78435 5.40741C8.58858 5.30576 8.35516 5.34906 8.20646 5.49777L8.20458 5.49588L5.68779 8.01267C5.52214 8.17832 5.49767 8.43056 5.61438 8.62067L6.91699 11.1525L6.75887 11.4311C6.48969 11.8998 6.24874 12.393 6.03791 12.9031C5.83084 13.4039 5.65202 13.9215 5.50893 14.4523L5.42423 14.761L2.6797 15.6401C2.46887 15.7079 2.33522 15.9017 2.33522 16.1107H2.33334V19.6703C2.33334 19.9056 2.49711 20.1032 2.71735 20.1541L5.42236 21.0218L5.50707 21.3306C5.65201 21.8595 5.82896 22.3772 6.03605 22.8797C6.24687 23.3899 6.48782 23.8812 6.75701 24.3518L6.91512 24.6304L5.59744 27.1923C5.49579 27.3881 5.53908 27.6215 5.68779 27.7702L5.68591 27.7721L8.20269 30.2889C8.36834 30.4545 8.62058 30.479 8.8107 30.3623L11.3425 29.0597L11.6211 29.2178C12.0898 29.487 12.583 29.7279 13.0931 29.9387C13.5939 30.1458 14.1115 30.3246 14.6423 30.4677L14.951 30.5524L15.8301 33.297C15.8979 33.5078 16.0918 33.6414 16.3007 33.6414V33.6433H19.8603C20.0956 33.6433 20.2933 33.4795 20.3441 33.2593L21.2119 30.5543L21.5206 30.4696C22.0496 30.3246 22.5672 30.1477 23.0698 29.9406C23.5799 29.7298 24.0731 29.4888 24.5418 29.2197L24.8204 29.0615L27.3823 30.3792C27.5781 30.4809 27.8115 30.4376 27.9602 30.2889L27.9621 30.2907L30.4789 27.774C30.6445 27.6083 30.669 27.3561 30.5523 27.166L29.2497 24.6341L29.4078 24.3555C29.677 23.8868 29.9179 23.3936 30.1288 22.8835C30.3358 22.3828 30.5147 21.8651 30.6578 21.3343L30.7425 21.0256L33.487 20.1465C33.6978 20.0788 33.8315 19.8849 33.8315 19.6759H33.8333V16.1163C33.8333 15.881 33.6696 15.6834 33.4493 15.6326L30.7443 14.7648L30.6596 14.4561C30.5147 13.9271 30.3377 13.4094 30.1306 12.9069V12.905C29.9217 12.3986 29.6807 11.9073 29.4097 11.4348L29.2516 11.1562L30.5693 8.59431C30.6709 8.39854 30.6276 8.16513 30.4789 8.01643L30.4808 8.01454L27.964 5.49776C27.7983 5.33211 27.5461 5.30764 27.356 5.42435L24.8242 6.72696L24.5456 6.56884C24.0769 6.29965 23.5837 6.0587 23.0735 5.84787C22.5728 5.64081 22.0552 5.46199 21.5244 5.3189L21.2156 5.23419L20.3366 2.48967C20.2688 2.27884 20.0749 2.14519 19.866 2.14519V2.14331H16.3064C16.0711 2.14331 15.8734 2.30708 15.8226 2.52732L14.9548 5.23234ZM16.6678 3.13533L15.817 5.7895C15.7624 5.96269 15.6193 6.08316 15.4537 6.12081L14.9078 6.26951C14.4221 6.40128 13.9459 6.56505 13.4771 6.75892C13.0122 6.95093 12.5604 7.17493 12.1199 7.42528L11.6098 7.71706C11.4498 7.80929 11.2597 7.80176 11.1109 7.71329L8.65627 6.4502L6.64962 8.45685L7.92399 10.936C8.00305 11.0903 7.99364 11.2673 7.91458 11.4084L7.62281 11.9204C7.36868 12.3647 7.14656 12.8165 6.95645 13.2758C6.76256 13.7445 6.59879 14.2226 6.46516 14.7083L6.3108 15.2768C6.26562 15.4443 6.1395 15.5686 5.98515 15.6175L3.33098 16.4683V19.307L5.98515 20.1578C6.15833 20.2124 6.2788 20.3554 6.31645 20.5211L6.46516 21.067C6.59692 21.5526 6.76069 22.0308 6.95645 22.4995C7.14657 22.9588 7.36869 23.4106 7.62281 23.8548L7.91458 24.3668C8.00682 24.5268 7.99929 24.717 7.91081 24.8657L6.64772 27.3204L8.65437 29.327L11.1335 28.0526C11.2878 27.9736 11.4648 27.983 11.606 28.0621L12.1161 28.3538C12.5603 28.6079 13.0121 28.8301 13.4714 29.0202C13.9401 29.2141 14.4182 29.3778 14.9039 29.5115L15.4724 29.6658C15.64 29.711 15.7642 29.8371 15.8131 29.9915L16.664 32.6457H19.5026L20.3534 29.9915C20.408 29.8183 20.5511 29.6978 20.7167 29.6602L21.2626 29.5115C21.7483 29.3797 22.2264 29.2159 22.6952 29.0202C23.1545 28.8301 23.6081 28.6079 24.0505 28.3538L24.5606 28.0621C24.7206 27.9698 24.9107 27.9774 25.0595 28.0658L27.5141 29.3289L29.5208 27.3223L28.2464 24.8432C28.1674 24.6888 28.1768 24.5119 28.2558 24.3707L28.5476 23.8587C28.8017 23.4144 29.0238 22.9626 29.214 22.5033C29.4078 22.0346 29.5716 21.5565 29.7052 21.0708L29.8596 20.5023C29.9048 20.3348 30.0309 20.2106 30.1853 20.1616L32.8394 19.3108V16.4722L30.1853 15.6213C30.0121 15.5667 29.8916 15.4237 29.854 15.258L29.7052 14.7121C29.5735 14.2265 29.4097 13.7502 29.2158 13.2815C29.0238 12.8184 28.8017 12.3648 28.5495 11.9243L28.2577 11.4123C28.1655 11.2523 28.173 11.0622 28.2615 10.9134L29.5246 8.45875L27.5179 6.4521L25.0388 7.72647C24.8845 7.80553 24.7075 7.79612 24.5663 7.71706L24.0562 7.42528C23.612 7.17116 23.1602 6.94904 22.7009 6.75892C22.2322 6.56504 21.7541 6.40127 21.2684 6.26763L20.6999 6.11328C20.5323 6.0681 20.4081 5.94198 20.3591 5.78762L19.5083 3.13345H16.6697L16.6678 3.13533ZM19.4914 14.4598C19.1319 14.1003 18.6368 13.8782 18.0871 13.8782C17.5393 13.8782 17.0424 14.1003 16.6828 14.4598C16.3233 14.8193 16.1012 15.3144 16.1012 15.8641C16.1012 16.4119 16.3233 16.9088 16.6828 17.2684C17.0424 17.6279 17.5374 17.85 18.0871 17.85C18.6349 17.85 19.1319 17.6279 19.4914 17.2684C19.8509 16.9089 20.073 16.4138 20.073 15.8641C20.073 15.3163 19.8509 14.8194 19.4914 14.4598ZM18.0871 12.8861C17.2645 12.8861 16.521 13.2193 15.9807 13.7577C15.4423 14.2961 15.1092 15.0415 15.1092 15.8641C15.1092 16.6867 15.4424 17.4303 15.9807 17.9705C16.5191 18.5089 17.2645 18.8421 18.0871 18.8421C18.9097 18.8421 19.6533 18.5089 20.1935 17.9705C20.7319 17.4321 21.0651 16.6867 21.0651 15.8641C21.0651 15.0415 20.7319 14.2979 20.1935 13.7577C19.6551 13.2193 18.9097 12.8861 18.0871 12.8861ZM23.9619 22.432C23.8 22.0574 23.5478 21.6997 23.239 21.4305C22.9341 21.1651 22.5783 20.9938 22.2056 20.9938H13.9701C13.6068 20.9938 13.2604 21.167 12.9611 21.4305C12.6524 21.7035 12.3982 22.0705 12.2307 22.4546C12.419 22.6974 12.6223 22.927 12.8387 23.1435C14.1828 24.4876 16.0388 25.3177 18.089 25.3177C20.1389 25.3177 21.9949 24.4875 23.3392 23.1435C23.5632 22.9195 23.7702 22.6842 23.9641 22.4338L23.9619 22.432ZM11.6076 21.519C11.8015 21.2103 12.0368 20.926 12.3041 20.6889C12.7747 20.271 13.3469 19.9999 13.9681 19.9999H22.2036C22.8361 19.9999 23.414 20.2691 23.8884 20.6813C24.1538 20.9129 24.3872 21.1915 24.5792 21.4927C25.1722 20.4254 25.5091 19.198 25.5091 17.8916C25.5091 15.8417 24.679 13.9856 23.335 12.6414C21.9909 11.2973 20.1349 10.4672 18.0848 10.4672C16.0346 10.4672 14.1788 11.2974 12.8345 12.6414C11.4905 13.9854 10.6604 15.8415 10.6604 17.8916C10.6604 19.2093 11.003 20.446 11.6053 21.5171L11.6076 21.519Z" stroke="#26391D" stroke-width="0.4" mask="url(#path-1-outside-1_90_114)"/>
</svg>
