<svg width="16" height="16" viewBox="0 0 16 16" fill="none" xmlns="http://www.w3.org/2000/svg">
<g clip-path="url(#clip0_36_36)">
<path d="M10.1786 8.82464C11.6685 9.38864 13.6738 9.28584 14.9506 8.58L16 8L14.9506 7.41998C13.6738 6.71419 11.6686 6.61142 10.1786 7.17533L9.06136 7.59825C9.0544 7.57574 9.046 7.55401 9.03776 7.53213L10.1237 7.04257C11.576 6.38783 12.9212 4.89719 13.325 3.49526L13.6569 2.3431L12.5047 2.67494C11.1028 3.07874 9.61216 4.424 8.95736 5.87628L8.48456 6.92514C8.46272 6.91453 8.44088 6.904 8.41832 6.89481L8.82464 5.82132C9.38856 4.33146 9.28576 2.32614 8.58 1.0493L8 0L7.41998 1.04934C6.71419 2.32618 6.61142 4.33146 7.17533 5.82136L7.58166 6.89485C7.55907 6.90404 7.53723 6.91457 7.51542 6.92517L7.04257 5.87631C6.38783 4.42404 4.89719 3.07877 3.49526 2.67498L2.3431 2.34314L2.67494 3.4953C3.07874 4.89719 4.424 6.38787 5.87628 7.04261L6.96219 7.53217C6.95398 7.55405 6.94553 7.57578 6.93864 7.59829L5.82132 7.17537C4.33146 6.61142 2.32614 6.71423 1.0493 7.42002L0 8L1.04934 8.58C2.32618 9.28584 4.33146 9.38864 5.82136 8.82464L6.99089 8.382C7.00011 8.40216 7.00938 8.4224 7.01976 8.44192L5.87632 8.95744C4.42404 9.61216 3.07878 11.1028 2.67498 12.5047L2.34314 13.6569L3.4953 13.325C4.89719 12.9213 6.38787 11.576 7.04261 10.1238L7.57325 8.94672C7.59286 8.95488 7.61321 8.9616 7.63338 8.96872L7.17537 10.1787C6.61142 11.6686 6.71423 13.6739 7.42002 14.9507L8 16.0001L8.58008 14.9507C9.28584 13.6739 9.38864 11.6686 8.82472 10.1787L8.36664 8.96864C8.3868 8.9616 8.4072 8.95488 8.4268 8.94664L8.95744 10.1237C9.61216 11.576 11.1028 12.9212 12.5047 13.325L13.6569 13.6569L13.325 12.5047C12.9213 11.1028 11.576 9.61216 10.1238 8.95736L8.98024 8.44192C8.99064 8.4224 8.99992 8.40216 9.00912 8.38192L10.1786 8.82464Z" fill="#416B2F"/>
</g>
<defs>
<clipPath id="clip0_36_36">
<rect width="16" height="16" fill="white"/>
</clipPath>
</defs>
</svg>
