<svg width="20" height="21" viewBox="0 0 20 21" fill="none" xmlns="http://www.w3.org/2000/svg">
<path fill-rule="evenodd" clip-rule="evenodd" d="M7.85752 8.45057H10.9525V9.99223C11.3984 9.10557 12.5417 8.3089 14.2592 8.3089C17.5517 8.3089 18.3334 10.0739 18.3334 13.3122V19.3097H15V14.0497C15 12.2056 14.5542 11.1656 13.4192 11.1656C11.845 11.1656 11.1909 12.2864 11.1909 14.0489V19.3097H7.85752V8.45057ZM2.14169 19.1681H5.47502V8.3089H2.14169V19.1681ZM5.95252 4.76807C5.95264 5.04746 5.89723 5.3241 5.78951 5.58189C5.68179 5.83968 5.5239 6.07349 5.32502 6.26973C4.92202 6.67025 4.37653 6.89444 3.80835 6.89307C3.24118 6.89269 2.69695 6.66907 2.29335 6.27057C2.0952 6.07366 1.93784 5.83959 1.83031 5.58176C1.72277 5.32393 1.66717 5.04742 1.66669 4.76807C1.66669 4.2039 1.89169 3.6639 2.29419 3.26557C2.69742 2.86653 3.24189 2.64282 3.80919 2.64307C4.37752 2.64307 4.92252 2.86723 5.32502 3.26557C5.72669 3.6639 5.95252 4.2039 5.95252 4.76807Z" fill="#26391D"/>
</svg>
