<svg width="143" height="28" viewBox="0 0 143 28" fill="none" xmlns="http://www.w3.org/2000/svg">
<path d="M30.8689 21.6839V5.03687H33.9129L41.7369 16.7612V5.03687H44.7809V21.6839H41.7369L33.9129 9.98342V21.6839H30.8689Z" fill="#26391D"/>
<path d="M52.4792 21.9694C51.29 21.9694 50.2358 21.7155 49.3163 21.2083C48.3968 20.701 47.6754 19.9875 47.1521 19.068C46.6288 18.1483 46.3673 17.0862 46.3673 15.8812C46.3673 14.6604 46.6209 13.5744 47.1284 12.6232C47.6515 11.6719 48.365 10.9347 49.2687 10.4115C50.1882 9.87244 51.2663 9.60291 52.5029 9.60291C53.6604 9.60291 54.6828 9.85658 55.5708 10.3639C56.4587 10.8712 57.1482 11.5689 57.6397 12.4567C58.1472 13.3287 58.4008 14.3037 58.4008 15.3818C58.4008 15.5562 58.3929 15.7385 58.3769 15.9288C58.3769 16.119 58.369 16.3171 58.3532 16.5234H49.3876C49.451 17.4429 49.768 18.1643 50.3389 18.6873C50.9254 19.2106 51.631 19.4721 52.4555 19.4721C53.0738 19.4721 53.5889 19.3374 54.0012 19.068C54.4292 18.7826 54.7462 18.4179 54.9525 17.9741H58.0441C57.822 18.7192 57.4495 19.4008 56.9262 20.0191C56.419 20.6216 55.7849 21.0972 55.0238 21.4461C54.2787 21.795 53.4305 21.9694 52.4792 21.9694ZM52.5029 12.0762C51.7578 12.0762 51.0998 12.2902 50.5291 12.7183C49.9582 13.1305 49.5936 13.7647 49.4352 14.6208H55.3092C55.2616 13.8439 54.9762 13.2256 54.4531 12.7658C53.9299 12.3061 53.2798 12.0762 52.5029 12.0762Z" fill="#26391D"/>
<path d="M57.8413 21.6839L62.1218 15.7861L57.8413 9.88829H61.0994L64.0958 14.0738L67.0684 9.88829H70.3502L66.0458 15.7861L70.3502 21.6839H67.0684L64.0958 17.4984L61.0994 21.6839H57.8413Z" fill="#26391D"/>
<path d="M76.3565 21.6839C75.1197 21.6839 74.1289 21.3827 73.3836 20.7802C72.6385 20.1777 72.266 19.1075 72.266 17.5697V12.4329H70.2446V9.88829H72.266L72.6227 6.72536H75.3099V9.88829H78.4967V12.4329H75.3099V17.5934C75.3099 18.1643 75.4289 18.5605 75.6667 18.7826C75.9203 18.9886 76.3484 19.0917 76.9508 19.0917H78.4254V21.6839H76.3565Z" fill="#26391D"/>
<path d="M79.921 21.6839V9.88828H82.6085L82.87 11.4816C83.2504 10.9109 83.75 10.459 84.3683 10.1261C85.0024 9.77731 85.7316 9.60291 86.5562 9.60291C88.3794 9.60291 89.6714 10.3084 90.4325 11.7195C90.8606 11.0694 91.4312 10.5542 92.1447 10.1737C92.874 9.79317 93.6667 9.60291 94.5228 9.60291C96.0608 9.60291 97.2419 10.0627 98.0664 10.9822C98.8907 11.9018 99.3029 13.2494 99.3029 15.0251V21.6839H96.259V15.3105C96.259 14.2958 96.0608 13.5189 95.6644 12.9799C95.2839 12.4408 94.6894 12.1713 93.8809 12.1713C93.0564 12.1713 92.3905 12.4725 91.8832 13.075C91.3918 13.6775 91.146 14.5178 91.146 15.5958V21.6839H88.1018V15.3105C88.1018 14.2958 87.9037 13.5189 87.5075 12.9799C87.111 12.4408 86.5007 12.1713 85.6761 12.1713C84.8676 12.1713 84.2097 12.4725 83.7024 13.075C83.211 13.6775 82.9652 14.5178 82.9652 15.5958V21.6839H79.921Z" fill="#26391D"/>
<path d="M106.664 21.9694C105.522 21.9694 104.492 21.7076 103.572 21.1846C102.669 20.6613 101.947 19.9399 101.408 19.0204C100.885 18.0849 100.623 17.007 100.623 15.7861C100.623 14.5653 100.893 13.4951 101.432 12.5756C101.971 11.6402 102.692 10.9109 103.596 10.3877C104.516 9.8645 105.546 9.60291 106.688 9.60291C107.813 9.60291 108.828 9.8645 109.732 10.3877C110.651 10.9109 111.373 11.6402 111.896 12.5756C112.435 13.4951 112.704 14.5653 112.704 15.7861C112.704 17.007 112.435 18.0849 111.896 19.0204C111.373 19.9399 110.651 20.6613 109.732 21.1846C108.812 21.7076 107.789 21.9694 106.664 21.9694ZM106.664 19.3295C107.457 19.3295 108.146 19.0362 108.733 18.4495C109.319 17.8473 109.613 16.9593 109.613 15.7861C109.613 14.6129 109.319 13.733 108.733 13.1463C108.146 12.5439 107.465 12.2427 106.688 12.2427C105.879 12.2427 105.181 12.5439 104.595 13.1463C104.024 13.733 103.739 14.6129 103.739 15.7861C103.739 16.9593 104.024 17.8473 104.595 18.4495C105.181 19.0362 105.871 19.3295 106.664 19.3295Z" fill="#26391D"/>
<path d="M116.843 21.6839L112.515 9.88829H115.702L118.698 18.8063L121.695 9.88829H124.881L120.529 21.6839H116.843Z" fill="#26391D"/>
<path d="M130.763 21.9694C129.574 21.9694 128.519 21.7155 127.6 21.2083C126.68 20.701 125.959 19.9875 125.436 19.068C124.913 18.1483 124.651 17.0862 124.651 15.8812C124.651 14.6604 124.905 13.5744 125.412 12.6232C125.935 11.6719 126.649 10.9347 127.552 10.4115C128.472 9.87244 129.55 9.60291 130.787 9.60291C131.944 9.60291 132.967 9.85658 133.854 10.3639C134.742 10.8712 135.432 11.5689 135.923 12.4567C136.431 13.3287 136.685 14.3037 136.685 15.3818C136.685 15.5562 136.677 15.7385 136.661 15.9288C136.661 16.119 136.653 16.3171 136.637 16.5234H127.671C127.735 17.4429 128.052 18.1643 128.623 18.6873C129.209 19.2106 129.915 19.4721 130.739 19.4721C131.357 19.4721 131.873 19.3374 132.285 19.068C132.713 18.7826 133.03 18.4179 133.236 17.9741H136.328C136.106 18.7192 135.733 19.4008 135.21 20.0191C134.703 20.6216 134.069 21.0972 133.307 21.4461C132.562 21.795 131.714 21.9694 130.763 21.9694ZM130.787 12.0762C130.041 12.0762 129.383 12.2902 128.813 12.7183C128.242 13.1305 127.878 13.7647 127.719 14.6208H133.593C133.545 13.8439 133.26 13.2256 132.737 12.7658C132.214 12.3061 131.563 12.0762 130.787 12.0762Z" fill="#26391D"/>
<path d="M15.8588 4.71325V12.2388C15.8588 13.0977 15.1625 13.794 14.3036 13.794H6.77805V10.6835H10.5447L6.58716 6.726L8.78661 4.52655L12.7483 8.48825V4.71325H15.8588Z" fill="#26391D"/>
<path d="M25.0459 13.9006H17.5203C16.6614 13.9006 15.9651 14.597 15.9651 15.4559V22.9815H19.0756V19.2144L23.0334 23.1722L25.2327 20.9728L21.2712 17.011H25.0459V13.9006Z" fill="#26391D"/>
</svg>
