<svg width="30" height="31" viewBox="0 0 30 31" fill="none" xmlns="http://www.w3.org/2000/svg">
<circle cx="15" cy="15.9766" r="15" fill="#596654"/>
<path d="M23.7167 11.0002C23.075 11.2918 22.3833 11.4835 21.6667 11.5752C22.4 11.1335 22.9667 10.4335 23.2333 9.59183C22.5417 10.0085 21.775 10.3002 20.9667 10.4668C20.3083 9.75016 19.3833 9.3335 18.3333 9.3335C16.375 9.3335 14.775 10.9335 14.775 12.9085C14.775 13.1918 14.8083 13.4668 14.8667 13.7252C11.9 13.5752 9.25833 12.1502 7.49999 9.99183C7.19166 10.5168 7.01666 11.1335 7.01666 11.7835C7.01666 13.0252 7.64166 14.1252 8.60833 14.7502C8.01666 14.7502 7.46666 14.5835 6.98333 14.3335V14.3585C6.98333 16.0918 8.21666 17.5418 9.84999 17.8668C9.3256 18.0103 8.77507 18.0303 8.24166 17.9252C8.468 18.6356 8.91127 19.2572 9.50917 19.7026C10.1071 20.148 10.8295 20.3949 11.575 20.4085C10.3114 21.4089 8.74499 21.9496 7.13333 21.9418C6.84999 21.9418 6.56666 21.9252 6.28333 21.8918C7.86666 22.9085 9.74999 23.5002 11.7667 23.5002C18.3333 23.5002 21.9417 18.0502 21.9417 13.3252C21.9417 13.1668 21.9417 13.0168 21.9333 12.8585C22.6333 12.3585 23.2333 11.7252 23.7167 11.0002Z" fill="#F3F0EC"/>
</svg>
