<svg width="30" height="31" viewBox="0 0 30 31" fill="none" xmlns="http://www.w3.org/2000/svg">
<circle cx="15" cy="15.9766" r="15" fill="#596654"/>
<path d="M13.3333 18.4998L17.6583 15.9998L13.3333 13.4998V18.4998ZM22.9666 11.9748C23.075 12.3665 23.15 12.8915 23.2 13.5582C23.2583 14.2248 23.2833 14.7998 23.2833 15.2998L23.3333 15.9998C23.3333 17.8248 23.2 19.1665 22.9666 20.0248C22.7583 20.7748 22.275 21.2582 21.525 21.4665C21.1333 21.5748 20.4166 21.6498 19.3166 21.6998C18.2333 21.7582 17.2416 21.7832 16.325 21.7832L15 21.8332C11.5083 21.8332 9.33329 21.6998 8.47496 21.4665C7.72496 21.2582 7.24163 20.7748 7.03329 20.0248C6.92496 19.6332 6.84996 19.1082 6.79996 18.4415C6.74163 17.7748 6.71663 17.1998 6.71663 16.6998L6.66663 15.9998C6.66663 14.1748 6.79996 12.8332 7.03329 11.9748C7.24163 11.2248 7.72496 10.7415 8.47496 10.5332C8.86663 10.4248 9.58329 10.3498 10.6833 10.2998C11.7666 10.2415 12.7583 10.2165 13.675 10.2165L15 10.1665C18.4916 10.1665 20.6666 10.2998 21.525 10.5332C22.275 10.7415 22.7583 11.2248 22.9666 11.9748Z" fill="#F3F0EC"/>
</svg>
